<svg xmlns="http://www.w3.org/2000/svg" viewBox="0 0 48 48">
  <!-- Logo PainPrêt : épi de blé doré sur tuile prune (façade La Pétrie) -->
  <rect width="48" height="48" rx="11" fill="#6b2a4e"/>
  <rect x="1.5" y="1.5" width="45" height="45" rx="9.5" fill="none" stroke="#e9cd90" stroke-opacity="0.55" stroke-width="1.5"/>
  <path d="M24 45 C24 36 24 26 24 13" fill="none" stroke="#e9cd90" stroke-width="2.4" stroke-linecap="round"/>
  <path d="M24 41 C17 41.5 12.5 38 11 32.5 C17.5 33 22 36 24 41Z" fill="#e9cd90" opacity="0.55"/>
  <path d="M24 35 C18.4 34 15 30.4 14.5 25 C20.2 26 23.5 29.6 24 35Z" fill="#e9cd90"/>
  <path d="M24 35 C29.6 34 33 30.4 33.5 25 C27.8 26 24.5 29.6 24 35Z" fill="#e9cd90"/>
  <path d="M24 26.5 C18.8 25.5 15.7 22 15.2 17 C20.6 18 23.6 21.4 24 26.5Z" fill="#e9cd90"/>
  <path d="M24 26.5 C29.2 25.5 32.3 22 32.8 17 C27.4 18 24.4 21.4 24 26.5Z" fill="#e9cd90"/>
  <path d="M24 18.5 C20.4 16.6 18.8 13 19.3 8.8 C22.7 10.8 24.3 14.3 24 18.5Z" fill="#e9cd90"/>
  <path d="M24 18.5 C27.6 16.6 29.2 13 28.7 8.8 C25.3 10.8 23.7 14.3 24 18.5Z" fill="#e9cd90"/>
  <path d="M24 11 C22.2 8.6 22.2 5.4 24 3 C25.8 5.4 25.8 8.6 24 11Z" fill="#f7e8c4"/>
</svg>
